<svg width="32" height="32" viewBox="0 0 32 32" fill="none" xmlns="http://www.w3.org/2000/svg">
<g clip-path="url(#clip0_375_4)">
<path d="M8.664 15.16H23.736V27H19.256V22.456C18.6373 23.9707 17.656 25.1653 16.312 26.04C14.9893 26.8933 13.3573 27.32 11.416 27.32C9.32533 27.32 7.42667 26.8507 5.72 25.912C4.03467 24.952 2.69067 23.5973 1.688 21.848C0.706667 20.0987 0.216 18.0827 0.216 15.8C0.216 13.6453 0.738667 11.6933 1.784 9.944C2.85067 8.19467 4.29067 6.81867 6.104 5.816C7.91733 4.792 9.90133 4.28 12.056 4.28C15.0853 4.28 17.5067 5.00533 19.32 6.456C21.1333 7.88533 22.3387 9.76267 22.936 12.088L18.008 13.656C17.688 12.184 16.9947 11.032 15.928 10.2C14.8827 9.34667 13.592 8.92 12.056 8.92C10.7973 8.92 9.656 9.21867 8.632 9.816C7.608 10.392 6.79733 11.2027 6.2 12.248C5.624 13.2933 5.336 14.4773 5.336 15.8C5.336 17.8907 5.92267 19.5653 7.096 20.824C8.29067 22.0613 9.89067 22.68 11.896 22.68C12.92 22.68 13.8053 22.4987 14.552 22.136C15.32 21.752 15.9067 21.304 16.312 20.792C16.7387 20.2587 17.0053 19.768 17.112 19.32H8.664V15.16Z" fill="#F5F5F5"/>
<path d="M25.5982 27V21.88H30.7182V27H25.5982Z" fill="#96FF1F"/>
</g>
<defs>
<clipPath id="clip0_375_4">
<rect width="32" height="32" fill="white"/>
</clipPath>
</defs>
</svg>
